<svg id="visual" viewBox="0 0 960 540" width="960" height="540" xmlns="http://www.w3.org/2000/svg" xmlns:xlink="http://www.w3.org/1999/xlink" version="1.1"><rect x="0" y="0" width="960" height="540" fill="#ecf7ee"></rect><defs><linearGradient id="grad1_0" x1="43.8%" y1="100%" x2="100%" y2="0%"><stop offset="14.444444444444446%" stop-color="#ecf7ee" stop-opacity="1"></stop><stop offset="85.55555555555554%" stop-color="#ecf7ee" stop-opacity="1"></stop></linearGradient></defs><defs><linearGradient id="grad2_0" x1="0%" y1="100%" x2="56.3%" y2="0%"><stop offset="14.444444444444446%" stop-color="#ecf7ee" stop-opacity="1"></stop><stop offset="85.55555555555554%" stop-color="#ecf7ee" stop-opacity="1"></stop></linearGradient></defs><g transform="translate(960, 540)"><path d="M-405 0C-366.4 -37.9 -327.8 -75.9 -315 -130.5C-302.3 -185.1 -315.4 -256.4 -286.4 -286.4C-257.4 -316.3 -186.4 -304.9 -131.6 -317.8C-76.9 -330.7 -38.5 -367.8 0 -405L0 0Z" fill="#3e8ed0"></path></g><g transform="translate(0, 0)"><path d="M405 0C409.3 61.1 413.6 122.2 374.2 155C334.8 187.8 251.7 192.3 202.2 202.2C152.7 212.2 136.8 227.7 108.7 262.4C80.6 297.1 40.3 351 0 405L0 0Z" fill="#3e8ed0"></path></g></svg>